<svg xmlns="http://www.w3.org/2000/svg" width="17.087" height="20.004" viewBox="0 0 17.087 20.004">
  <g id="company" transform="translate(-37.336)">
    <g id="Group_3" data-name="Group 3" transform="translate(45.548)">
      <g id="Group_2" data-name="Group 2">
        <path id="Path_1" data-name="Path 1" d="M251.6,0a4.694,4.694,0,0,0-3.039,1.645,4.077,4.077,0,0,0-1,3.168,3.962,3.962,0,0,0,3.067-1.567A4.4,4.4,0,0,0,251.6,0Z" transform="translate(-247.522)" fill="#fff"/>
      </g>
    </g>
    <g id="Group_5" data-name="Group 5" transform="translate(37.336 4.682)">
      <g id="Group_4" data-name="Group 4" transform="translate(0)">
        <path id="Path_2" data-name="Path 2" d="M53.844,121.869a5.064,5.064,0,0,0-3.822-2.029c-1.794,0-2.553.859-3.8.859-1.285,0-2.262-.856-3.813-.856a5.189,5.189,0,0,0-4.176,2.524c-1.447,2.243-1.2,6.46,1.145,10.052.839,1.285,1.959,2.731,3.424,2.743,1.3.013,1.672-.836,3.438-.845s2.1.856,3.4.843c1.467-.011,2.648-1.613,3.487-2.9a14.414,14.414,0,0,0,1.292-2.425A4.41,4.41,0,0,1,53.844,121.869Z" transform="translate(-37.336 -119.84)" fill="#fff"/>
      </g>
    </g>
  </g>
</svg>
