<svg id="google-hangouts" xmlns="http://www.w3.org/2000/svg" width="18.002" height="18.002" viewBox="0 0 18.002 18.002">
  <path id="Path_3" data-name="Path 3" d="M3.99,144.285l-.627,2.339-2.29.048a9.017,9.017,0,0,1-.066-8.405h0l2.039.374.893,2.027a5.372,5.372,0,0,0,.05,3.617Z" transform="translate(0 -133.406)" fill="#fbbb00"/>
  <path id="Path_4" data-name="Path 4" d="M270.274,208.176a9,9,0,0,1-3.209,8.7h0l-2.568-.131-.363-2.269a5.365,5.365,0,0,0,2.308-2.739h-4.813v-3.561h8.646Z" transform="translate(-252.429 -200.856)" fill="#518ef8"/>
  <path id="Path_5" data-name="Path 5" d="M44.072,314.55h0A9,9,0,0,1,30.509,311.8l2.917-2.388a5.353,5.353,0,0,0,7.714,2.741Z" transform="translate(-29.436 -298.53)" fill="#28b446"/>
  <path id="Path_6" data-name="Path 6" d="M42.364,2.072,39.448,4.46a5.353,5.353,0,0,0-7.891,2.8l-2.932-2.4h0a9,9,0,0,1,13.74-2.789Z" transform="translate(-27.618)" fill="#f14336"/>
</svg>
