<?xml version="1.0" encoding="UTF-8"?>
<svg width="814px" height="182px" viewBox="0 0 814 182" version="1.1" xmlns="http://www.w3.org/2000/svg" xmlns:xlink="http://www.w3.org/1999/xlink">
    <!-- Generator: Sketch 52.5 (67469) - http://www.bohemiancoding.com/sketch -->
    <title>Artboard</title>
    <desc>Created with Sketch.</desc>
    <defs>
        <polygon id="path-1" points="1.08384 0 104.54544 0 104.54544 143.95536 1.08384 143.95536"></polygon>
        <polygon id="path-3" points="0 144 804 144 804 0 0 0"></polygon>
    </defs>
    <g id="Artboard" stroke="none" stroke-width="1" fill="none" fill-rule="evenodd">
        <g id="Group-22" transform="translate(5.000000, 19.000000)">
            <path d="M50.24904,40.8936 L49.64904,40.8648 L53.79144,25.3848 L20.79144,41.6472 L14.46744,65.0304 C21.66024,60.5808 31.26744,59.1144 40.85544,61.8096 C41.40744,61.9656 41.93064,62.16 42.46824,62.34 C44.49384,62.9208 46.53624,63.792 48.86184,65.088 C49.95864,65.7 50.98824,66.3912 51.97704,67.1208 C51.98904,67.1304 51.99864,67.1376 52.01064,67.1448 C52.46904,67.4856 52.91304,67.8336 53.34744,68.196 C62.12664,75.2016 66.53304,85.9056 63.67224,96.0768 C60.86904,106.0392 51.85464,112.8144 41.01624,114.408 C38.33784,114.8712 35.64264,114.9408 33.05064,114.6384 C30.83064,114.444 28.58664,114.06 26.33784,113.4288 C17.44584,110.928 10.41384,105.3528 6.39144,98.5392 C5.99544,98.0256 5.76984,97.704 5.76984,97.704 L2.80584,109.2288 L0.00024,120.1392 L0.40104,120.7416 C10.02984,135.2424 26.14824,143.8968 43.51464,143.8968 C72.04584,143.8968 95.25864,120.6864 95.25864,92.1528 C95.25864,66.2784 75.90744,44.2392 50.24904,40.8936" id="Fill-1" fill="#333333"></path>
            <polygon id="Fill-3" fill="#FF6446" points="32.0544 0 21.0936 40.5312 20.7912 41.6472 53.7912 25.3848 83.9376 25.3848 106.5792 0"></polygon>
            <polygon id="Fill-5" fill="#333333" points="111.3588 25.35936 129.0468 25.38576 117.798 143.89776 147.3372 143.89776 161.61 0.00096 133.9596 0.00096"></polygon>
            <g id="Group-9" transform="translate(177.600000, 0.000000)">
                <mask id="mask-2" fill="white">
                    <use xlink:href="#path-1"></use>
                </mask>
                <g id="Clip-8"></g>
                <path d="M38.89584,39.30576 C38.89584,31.61616 45.12864,25.38336 52.81824,25.38336 C60.50784,25.38336 66.74064,31.61616 66.74064,39.30576 C66.74064,40.33776 66.62064,41.34096 66.40704,42.31056 C65.03184,48.55536 59.47584,53.22816 52.81824,53.22816 C46.16064,53.22816 40.60224,48.55296 39.22944,42.30816 C39.01584,41.34096 38.89584,40.33776 38.89584,39.30576 M28.84224,92.22336 C28.84224,78.98496 39.57504,68.25216 52.81344,68.25216 C66.05424,68.25216 76.78704,78.98496 76.78704,92.22336 C76.78704,92.38656 76.77744,92.54736 76.77504,92.71056 C76.51344,105.72336 65.89104,116.19696 52.81344,116.19696 C39.70224,116.19696 29.05584,105.66816 28.85184,92.60496 C28.84944,92.47776 28.84224,92.35296 28.84224,92.22336 M89.59584,55.85616 C92.17584,49.88016 93.34704,43.19616 92.68704,36.25776 C90.58704,14.23536 71.03424,-1.91664 49.01184,0.18336 C26.98944,2.28336 10.83744,21.83616 12.93504,43.85856 C13.34304,48.11376 14.41344,52.14576 16.01904,55.87296 C6.78864,65.21616 1.08384,78.05136 1.08384,92.22336 C1.08384,96.74016 1.66704,101.12256 2.75424,105.29856 C8.54544,127.53696 28.76064,143.95536 52.81344,143.95536 C79.83504,143.95536 102.00144,123.23616 104.33184,96.82176 C104.46384,95.30496 104.54544,93.77376 104.54544,92.22336 C104.54544,78.04416 98.83584,65.20176 89.59584,55.85616" id="Fill-7" fill="#333333" mask="url(#mask-2)"></path>
            </g>
            <path d="M578.004,63.00456 L582.6768,46.10376 L586.92,46.10376 L591.5928,63.00456 L578.004,63.00456 Z M605.6904,73.23336 L605.6904,65.92296 L610.6296,65.92296 L602.0832,35.10456 L571.3968,35.10456 C568.8072,35.10456 566.5392,36.83736 565.8576,39.33336 L558.588,65.92296 L563.7816,65.92296 L563.7816,73.23336 L575.5032,73.23336 L575.5032,84.51336 L561.3864,84.51336 L561.3864,94.91256 L575.5032,94.91256 L575.5032,131.83896 L560.1264,133.35336 L560.1264,143.99976 L606.6984,139.72056 L606.6984,128.72376 L595.1016,130.10856 L595.1016,94.91256 L607.7064,94.91256 L607.7064,84.51336 L595.1016,84.51336 L595.1016,73.23336 L605.6904,73.23336 Z" id="Fill-10" fill="#333333"></path>
            <mask id="mask-4" fill="white">
                <use xlink:href="#path-3"></use>
            </mask>
            <g id="Clip-13"></g>
            <path d="M632.748,81.552 L648.8784,81.552 L648.8784,69.06 L632.748,69.06 L632.748,81.552 Z M632.748,58.0776 L648.8784,58.0776 L648.8784,46.0896 L632.748,46.0896 L632.748,58.0776 Z M671.0856,97.4928 L659.3328,97.4928 L655.5504,107.8608 L650.2272,97.4928 L632.748,97.4928 L632.748,92.0328 L668.7744,92.0328 L668.7744,40.824 C668.7744,37.6656 666.2136,35.1048 663.0576,35.1048 L611.5992,35.1048 L611.5992,144 L638.388,144 L642.8016,133.5192 L632.748,133.5192 L632.748,103.2576 L650.6976,140.7504 C651.648,142.7376 653.6544,144 655.8552,144 L672.6192,144 L661.932,121.6584 L671.0856,97.4928 Z" id="Fill-12" fill="#333333" mask="url(#mask-4)"></path>
            <polygon id="Fill-14" fill="#333333" mask="url(#mask-4)" points="605.0604 123.52848 607.542 100.60848 600.9612 100.60848 598.5972 123.52848"></polygon>
            <polygon id="Fill-15" fill="#333333" mask="url(#mask-4)" points="569.96736 99.8004 561.97776 99.8004 564.91056 124.5468 572.78016 124.5468"></polygon>
            <path d="M795.38112,35.1 L742.67472,35.1 L735.27072,47.9256 L801.10992,47.9256 L801.10992,40.8288 C801.10992,37.6632 798.54432,35.1 795.38112,35.1" id="Fill-16" fill="#333333" mask="url(#mask-4)"></path>
            <path d="M733.41,60.50256 L717.2556,60.50256 L731.8068,35.10096 L711.2532,35.10096 C709.2444,35.10096 707.3892,36.17376 706.386,37.91376 L691.11,64.44816 L707.0196,64.44816 L690.3708,93.92256 L699.8676,93.92256 L699.8676,143.98896 L723.2988,143.98896 L723.2988,88.61856 L717.6252,88.61856 L733.41,60.50256 Z" id="Fill-17" fill="#333333" mask="url(#mask-4)"></path>
            <path d="M738.68688,70.80456 L731.41248,83.50536 L764.38848,83.50536 L764.38848,131.41416 L735.21648,131.41416 L742.63728,143.99016 L782.80608,143.99016 C785.97168,143.99016 788.53488,141.42456 788.53488,138.26136 L788.53488,83.50536 L804.00048,83.50536 L804.00048,70.80456 L738.68688,70.80456 Z" id="Fill-18" fill="#333333" mask="url(#mask-4)"></path>
            <path d="M341.26656,35.10336 L293.36976,143.95776 L315.82416,143.95776 C318.05616,143.95776 320.07456,142.64016 320.97456,140.59776 L367.39296,35.10336 L341.26656,35.10336 Z" id="Fill-19" fill="#333333" mask="url(#mask-4)"></path>
            <path d="M352.15224,72.11472 L387.59304,140.90832 C388.55544,142.78032 390.48744,143.95872 392.59464,143.95872 L415.28904,143.95872 L378.27864,72.11472 L352.15224,72.11472 Z" id="Fill-20" fill="#333333" mask="url(#mask-4)"></path>
            <path d="M481.7556,53.646 L481.7556,35.1132 L456.6996,35.1132 L456.6996,53.646 L436.002,53.646 L436.002,67.794 L456.6996,67.794 C456.6996,71.5188 456.0636,75.2172 454.818,78.726 L431.6244,143.9988 L457.9236,143.9988 L479.9124,81.3084 C481.1316,77.8332 481.7556,74.1732 481.7556,70.4868 L481.7556,67.794 L510.4212,67.794 L510.4212,131.8692 L475.1364,131.8692 L481.7508,143.9988 L531.2556,143.9988 C534.366,143.9988 536.886,141.4788 536.886,138.3684 L536.886,59.2764 C536.886,56.166 534.366,53.646 531.2556,53.646 L481.7556,53.646 Z" id="Fill-21" fill="#333333" mask="url(#mask-4)"></path>
        </g>
    </g>
</svg>